<svg xmlns="http://www.w3.org/2000/svg" width="1200" height="630" viewBox="0 0 1200 630">
  <defs>
    <linearGradient id="bg" x1="0" y1="0" x2="1" y2="1">
      <stop offset="0" stop-color="#1f1f1f"/>
      <stop offset=".55" stop-color="#151515"/>
      <stop offset="1" stop-color="#121212"/>
    </linearGradient>
    <pattern id="grid" width="42" height="42" patternUnits="userSpaceOnUse">
      <path d="M42 0H0v42" fill="none" stroke="#ffffff" stroke-opacity=".035" stroke-width="1"/>
    </pattern>
  </defs>

  <rect width="1200" height="630" fill="#121212"/>
  <rect width="1200" height="630" fill="url(#bg)"/>
  <rect width="1200" height="630" fill="url(#grid)"/>
  <rect x="64" y="72" width="6" height="486" fill="#ff5500"/>

  <g transform="translate(92 88)">
    <polygon fill="#ff5500" points="42,0 80,21 80,63 42,84 4,63 4,21"/>
    <polygon fill="#ffffff" points="47.2,12.4 25.2,38.8 45,38.8 42.8,56.4 64.8,30 45,30"/>
  </g>

  <text x="190" y="122" fill="#ff5500" font-family="Inter, Arial, sans-serif" font-size="18" font-weight="800" letter-spacing="4">BPR 2.0 - REPLAY ANALYSIS</text>
  <text x="190" y="218" fill="#ffffff" font-family="Inter, Arial, sans-serif" font-size="96" font-weight="800">BlitzScrim</text>
  <text x="194" y="272" fill="#b8b8b8" font-family="Inter, Arial, sans-serif" font-size="34" font-weight="500">WoT Blitz replay analyzer</text>
  <text x="194" y="334" fill="#ffffff" font-family="Inter, Arial, sans-serif" font-size="34" font-weight="500">Session stats, BPR ratings, charts and Excel-ready reports.</text>

  <g transform="translate(194 410)">
    <rect width="248" height="92" rx="0" fill="#181818" stroke="#444444" stroke-width="2"/>
    <text x="26" y="43" fill="#ff5500" font-family="Inter, Arial, sans-serif" font-size="28" font-weight="800">Replays</text>
    <text x="26" y="68" fill="#b8b8b8" font-family="Inter, Arial, sans-serif" font-size="20" font-weight="500">Analyzed at scale</text>
  </g>

  <g transform="translate(486 410)">
    <rect width="248" height="92" rx="0" fill="#181818" stroke="#444444" stroke-width="2"/>
    <text x="26" y="43" fill="#ff5500" font-family="Inter, Arial, sans-serif" font-size="28" font-weight="800">Players</text>
    <text x="26" y="68" fill="#b8b8b8" font-family="Inter, Arial, sans-serif" font-size="20" font-weight="500">Team performance</text>
  </g>

  <g transform="translate(778 410)">
    <rect width="248" height="92" rx="0" fill="#181818" stroke="#444444" stroke-width="2"/>
    <text x="26" y="43" fill="#ff5500" font-family="Inter, Arial, sans-serif" font-size="28" font-weight="800">Reports</text>
    <text x="26" y="68" fill="#b8b8b8" font-family="Inter, Arial, sans-serif" font-size="20" font-weight="500">Clean exports</text>
  </g>

  <text x="190" y="574" fill="#b8b8b8" font-family="Inter, Arial, sans-serif" font-size="22" font-weight="500">blitzscrim.sneeko.fr</text>
</svg>
