<svg xmlns="http://www.w3.org/2000/svg" width="1200" height="630" viewBox="0 0 1200 630">
  <rect width="1200" height="630" fill="#121212"/>
  <rect x="54" y="54" width="1092" height="522" rx="18" fill="#1f1f1f" stroke="#313131"/>
  <path fill="#ff5500" d="M150 126 222 166v80l-72 40-72-40v-80z"/>
  <path fill="#fff" d="M158 142 98 218h48l-8 54 62-86h-45z"/>
  <text x="278" y="178" fill="#ff5500" font-family="Inter, Arial, sans-serif" font-size="26" font-weight="700" letter-spacing="4">PERFORMANCE</text>
  <text x="278" y="260" fill="#ffffff" font-family="Inter, Arial, sans-serif" font-size="86" font-weight="800">BlitzScrim</text>
  <text x="282" y="324" fill="#9e9e9e" font-family="Inter, Arial, sans-serif" font-size="32" font-weight="500">WoT Blitz replay sessions, team stats, BPR ratings and exports.</text>
  <g transform="translate(282 404)">
    <rect width="202" height="86" rx="8" fill="#151515" stroke="#313131"/>
    <text x="22" y="36" fill="#ffffff" font-family="Inter, Arial, sans-serif" font-size="28" font-weight="800">BPR 2.0</text>
    <text x="22" y="62" fill="#666" font-family="Inter, Arial, sans-serif" font-size="16" font-weight="700" letter-spacing="2">RATINGS</text>
  </g>
  <g transform="translate(506 404)">
    <rect width="202" height="86" rx="8" fill="#151515" stroke="#313131"/>
    <text x="22" y="36" fill="#ffffff" font-family="Inter, Arial, sans-serif" font-size="28" font-weight="800">Charts</text>
    <text x="22" y="62" fill="#666" font-family="Inter, Arial, sans-serif" font-size="16" font-weight="700" letter-spacing="2">ANALYTICS</text>
  </g>
  <g transform="translate(730 404)">
    <rect width="202" height="86" rx="8" fill="#151515" stroke="#313131"/>
    <text x="22" y="36" fill="#ffffff" font-family="Inter, Arial, sans-serif" font-size="28" font-weight="800">Excel</text>
    <text x="22" y="62" fill="#666" font-family="Inter, Arial, sans-serif" font-size="16" font-weight="700" letter-spacing="2">EXPORT</text>
  </g>
</svg>
